<svg xmlns="http://www.w3.org/2000/svg" xmlns:xlink="http://www.w3.org/1999/xlink" width="100" height="100" viewBox="0 0 100 100"><svg viewBox="0 0 99.999997 99.999997"><g transform="translate(-149.6453,-589.21878)"><path d="m 199.64552,591.21879 a 48.000099,48.000099 0 0 0 -48.00022,48.00022 48.000099,48.000099 0 0 0 48.00022,47.99977 48.000099,48.000099 0 0 0 47.99977,-47.99977 48.000099,48.000099 0 0 0 -47.99977,-48.00022 z m 0,5.42088 a 42.107528,42.578935 0 0 1 42.10718,42.57934 42.107528,42.578935 0 0 1 -42.10718,42.57887 42.107528,42.578935 0 0 1 -42.10763,-42.57887 42.107528,42.578935 0 0 1 42.10763,-42.57934 z" fill="#349AFF"></path></g></svg><g transform="translate(50 50) scale(0.69 0.69) rotate(0) translate(-50 -50)" style="fill:#349AFF"><svg fill="#349AFF" xmlns="http://www.w3.org/2000/svg" xmlns:xlink="http://www.w3.org/1999/xlink" version="1.1" x="0px" y="0px" viewBox="0 0 100 100.016" enable-background="new 0 0 100 100.016" xml:space="preserve"><g><path fill="#349AFF" d="M89.905,48.555c0.077,0.51,0.117,1.032,0.117,1.564c0,5.766-4.69,10.457-10.456,10.457   S69.11,55.885,69.11,50.119c0-5.766,4.69-10.457,10.456-10.457c1.643,0,3.197,0.382,4.581,1.06l1.405-1.89   c-1.786-0.952-3.824-1.494-5.986-1.494c-6.253,0-11.469,4.516-12.564,10.457h-4.848c-1.096-5.941-6.311-10.457-12.564-10.457   s-11.468,4.516-12.565,10.457h-4.847c-1.096-5.941-6.312-10.457-12.564-10.457c-7.047,0-12.78,5.733-12.78,12.781   c0,7.047,5.733,12.78,12.78,12.78c6.253,0,11.468-4.516,12.564-10.457h4.847C38.122,58.384,43.337,62.9,49.59,62.9   s11.468-4.516,12.564-10.457h4.848C68.098,58.384,73.313,62.9,79.566,62.9c7.047,0,12.78-5.733,12.78-12.78   c0-1.392-0.227-2.731-0.64-3.986L89.905,48.555z M19.614,60.576c-5.766,0-10.457-4.691-10.457-10.457   c0-5.766,4.691-10.457,10.457-10.457S30.07,44.353,30.07,50.119C30.07,55.885,25.379,60.576,19.614,60.576z M49.59,60.576   c-5.766,0-10.457-4.691-10.457-10.457c0-5.766,4.691-10.457,10.457-10.457c5.765,0,10.456,4.691,10.456,10.457   C60.046,55.885,55.355,60.576,49.59,60.576z"></path><path fill="#349AFF" d="M92.308,37.538c-0.944-0.702-2.278-0.506-2.98,0.438l-9.491,12.762l-4.504-3.35   c-0.943-0.702-2.278-0.506-2.98,0.438s-0.506,2.278,0.438,2.98l7.923,5.893l12.033-16.181   C93.447,39.574,93.251,38.24,92.308,37.538z"></path><circle fill="#349AFF" cx="19.614" cy="50.119" r="3.645"></circle><circle fill="#349AFF" cx="50.045" cy="50.119" r="3.645"></circle></g></svg></g></svg>